<svg width="16" height="16" viewBox="0 0 16 16" fill="none" xmlns="http://www.w3.org/2000/svg">
<path fill-rule="evenodd" clip-rule="evenodd" d="M2 11.2467V6.17133H14V11.2873C14 13.38 12.6828 14.6667 10.5752 14.6667H5.41822C3.33041 14.6667 2 13.3533 2 11.2467ZM5.30626 9.60666C5.00329 9.62066 4.75302 9.37999 4.73985 9.07399C4.73985 8.76733 4.97695 8.51399 5.27991 8.49999C5.57629 8.49999 5.81998 8.73399 5.82656 9.03333C5.83974 9.34066 5.60263 9.59399 5.30626 9.60666ZM8.01317 9.60666C7.71021 9.62066 7.45993 9.37999 7.44676 9.07399C7.44676 8.76733 7.68386 8.51399 7.98683 8.49999C8.28321 8.49999 8.52689 8.73399 8.53348 9.03333C8.54665 9.34066 8.30955 9.59399 8.01317 9.60666ZM10.7003 12.06C10.3974 12.0533 10.1537 11.8 10.1537 11.4933C10.1471 11.1867 10.3908 10.934 10.6937 10.9273H10.7003C11.0099 10.9273 11.2602 11.1807 11.2602 11.4933C11.2602 11.8067 11.0099 12.06 10.7003 12.06ZM7.44676 11.4933C7.45993 11.8 7.71021 12.0407 8.01317 12.0267C8.30955 12.014 8.54665 11.7607 8.53348 11.454C8.52689 11.154 8.28321 10.92 7.98683 10.92C7.68386 10.934 7.44676 11.1867 7.44676 11.4933ZM4.73326 11.4933C4.74643 11.8 4.99671 12.0407 5.29967 12.0267C5.59605 12.014 5.83315 11.7607 5.81998 11.454C5.81339 11.154 5.5697 10.92 5.27333 10.92C4.97036 10.934 4.73326 11.1867 4.73326 11.4933ZM10.1603 9.06733C10.1603 8.76066 10.3974 8.51399 10.7003 8.50733C10.9967 8.50733 11.2338 8.74666 11.247 9.04066C11.2536 9.34733 11.0165 9.60066 10.7201 9.60666C10.4171 9.61333 10.1668 9.37999 10.1603 9.07399V9.06733Z" fill="#898989"/>
<path opacity="0.4" d="M2.0022 6.17127C2.01076 5.77993 2.04369 5.00327 2.1056 4.75327C2.42174 3.34727 3.49528 2.45393 5.02986 2.3266H10.9706C12.492 2.4606 13.5787 3.35993 13.8948 4.75327C13.9561 4.9966 13.989 5.77927 13.9976 6.17127H2.0022Z" fill="#898989"/>
<path d="M5.53655 4.39331C5.82635 4.39331 6.04369 4.17398 6.04369 3.87998V1.84731C6.04369 1.55331 5.82635 1.33331 5.53655 1.33331C5.24676 1.33331 5.02942 1.55331 5.02942 1.84731V3.87998C5.02942 4.17398 5.24676 4.39331 5.53655 4.39331Z" fill="#898989"/>
<path d="M10.4633 4.39331C10.7465 4.39331 10.9704 4.17398 10.9704 3.87998V1.84731C10.9704 1.55331 10.7465 1.33331 10.4633 1.33331C10.1735 1.33331 9.95618 1.55331 9.95618 1.84731V3.87998C9.95618 4.17398 10.1735 4.39331 10.4633 4.39331Z" fill="#898989"/>
</svg>
