<svg width="14" height="14" viewBox="0 0 14 14" fill="none" xmlns="http://www.w3.org/2000/svg">
<path fill-rule="evenodd" clip-rule="evenodd" d="M0.329712 6.99952C0.329712 3.32019 3.30811 0.332855 6.97791 0.332855C10.6544 0.332855 13.6261 3.32019 13.6261 6.99952C13.6261 10.6802 10.6544 13.6662 6.97791 13.6662C3.30811 13.6662 0.329712 10.6802 0.329712 6.99952ZM6.39287 4.47286C6.39287 4.15352 6.6588 3.88619 6.97791 3.88619C7.29703 3.88619 7.5563 4.15352 7.5563 4.47286V7.41952C7.5563 7.74019 7.29703 7.99952 6.97791 7.99952C6.6588 7.99952 6.39287 7.74019 6.39287 7.41952V4.47286ZM6.98456 10.1202C6.6588 10.1202 6.39952 9.85352 6.39952 9.53352C6.39952 9.21352 6.6588 8.95352 6.97791 8.95352C7.30367 8.95352 7.56295 9.21352 7.56295 9.53352C7.56295 9.85352 7.30367 10.1202 6.98456 10.1202Z" fill="#1A2318"/>
</svg>
